<?xml version="1.0" standalone="no"?>
<!DOCTYPE svg PUBLIC "-//W3C//DTD SVG 1.1//EN" "http://www.w3.org/Graphics/SVG/1.1/DTD/svg11.dtd" >
<svg xmlns="http://www.w3.org/2000/svg">
<defs>
  <font id="Icons" horiz-adv-x="50">
    <font-face font-family="Icons"
      units-per-em="50" ascent="50"
      descent="0" />
    <missing-glyph horiz-adv-x="0" />
    <glyph glyph-name="arrowDown"
      unicode="&#xE001;"
      horiz-adv-x="50" d=" M2.709 38.331L25.001 17.173L46.672 38.224L49.994 35.475L24.998 11.684L0.008 35.475L2.709 38.331z" />
    <glyph glyph-name="arrowLeft"
      unicode="&#xE002;"
      horiz-adv-x="50" d=" M38.381 47.317L17.133 24.93L38.274 3.166L35.512 -0.17L11.621 24.931L35.512 50.027L38.381 47.317z" />
    <glyph glyph-name="arrowRight"
      unicode="&#xE003;"
      horiz-adv-x="50" d=" M11.677 2.715L32.835 25.007L11.784 46.678L14.533 50L38.323 25.004L14.533 0.014L11.677 2.715z" />
    <glyph glyph-name="arrowUp"
      unicode="&#xE004;"
      horiz-adv-x="50" d=" M47.293 11.684L25.001 32.842L3.33 11.791L0.008 14.54L25.004 38.331L49.994 14.54L47.293 11.684z" />
    <glyph glyph-name="cross"
      unicode="&#xE005;"
      horiz-adv-x="50" d=" M49.938 45.307L45.306 49.937L25 29.631L4.693 49.937L0.063 45.307L20.369 25L0.063 4.694L4.693 0.062L25 20.368L45.306 0.062L49.938 4.694L29.632 25z" />
    <glyph glyph-name="email"
      unicode="&#xE006;"
      horiz-adv-x="50" d=" M25 18.614L25 18.613L25 18.614L0 36.393L0 9.125L50 9.125L50 36.393z M49.748 40.875L0.251 40.875L25 23.326z" />
    <glyph glyph-name="facebook"
      unicode="&#xE007;"
      horiz-adv-x="50" d=" M35.765 22.893L36.838 31.793H28.618V37.474C28.618 40.038 29.286 41.792 32.729 41.792H37.123V49.757C36.36 49.864 33.759 50.103 30.719 50.103C24.385 50.103 20.039 45.96 20.039 38.343V31.794H12.876V22.892H20.039V0.076H28.614V22.893H35.765L35.765 22.893z" />
    <glyph glyph-name="instagram"
      unicode="&#xE008;"
      horiz-adv-x="50" d=" M44.225 28.815H39.87C40.187 27.588 40.376 26.301 40.376 24.978C40.376 16.491 33.489 9.613 24.991 9.613C16.5 9.613 9.617 16.492 9.617 24.978C9.617 26.301 9.802 27.588 10.119 28.815H5.767V7.692C5.767 6.635 6.628 5.774 7.692 5.774H42.302C43.365 5.774 44.226 6.635 44.226 7.692V28.815L44.225 28.815zM44.225 42.255C44.225 43.317 43.364 44.176 42.301 44.176H36.533C35.472 44.176 34.615 43.317 34.615 42.255V36.497C34.615 35.435 35.472 34.575 36.533 34.575H42.301C43.364 34.575 44.225 35.431 44.225 36.497V42.255zM24.994 34.576C19.691 34.576 15.384 30.277 15.384 24.978C15.384 19.68 19.691 15.373 24.994 15.373C30.305 15.373 34.616 19.677 34.616 24.978S30.305 34.576 24.994 34.576M44.225 0.011H5.766C2.58 0.011 0 2.592 0 5.775V44.179C0 47.361 2.581 49.938 5.766 49.938H44.224C47.412 49.938 49.989 47.358 49.989 44.179V5.777C49.993 2.592 47.412 0.011 44.225 0.011" />
    <glyph glyph-name="line"
      unicode="&#xE009;"
      horiz-adv-x="50" d=" M49.986 28.539C49.986 39.735 38.759 48.847 24.961 48.847C11.16 48.847 -0.066 39.736 -0.066 28.539C-0.066 18.501 8.837 10.09 20.866 8.498C21.68 8.324 22.789 7.96 23.07 7.265C23.322 6.634 23.233 5.643 23.15 5.004C23.15 5.004 22.858 3.236 22.794 2.858C22.685 2.226 22.289 0.385 24.961 1.511C27.631 2.635 39.371 9.998 44.622 16.041H44.62C48.247 20.02 49.986 24.058 49.986 28.539M15.165 21.876H10.193C9.468 21.876 8.88 22.464 8.88 23.191V33.133C8.88 33.857 9.469 34.446 10.193 34.446C10.915 34.446 11.503 33.857 11.503 33.133V24.502H15.165C15.889 24.502 16.475 23.912 16.475 23.189C16.474 22.464 15.888 21.876 15.165 21.876M20.307 23.191C20.307 22.465 19.719 21.876 18.994 21.876C18.274 21.876 17.682 22.464 17.682 23.191V33.133C17.682 33.857 18.274 34.446 18.994 34.446C19.719 34.446 20.307 33.857 20.307 33.133V23.191zM32.275 23.191C32.275 22.622 31.915 22.122 31.379 21.942C31.244 21.897 31.103 21.876 30.96 21.876C30.554 21.876 30.161 22.07 29.913 22.401L24.815 29.339V23.191C24.815 22.463 24.229 21.874 23.506 21.874C22.781 21.874 22.193 22.464 22.193 23.191V33.133C22.193 33.698 22.551 34.197 23.089 34.378C23.225 34.423 23.365 34.446 23.506 34.446C23.914 34.446 24.307 34.25 24.553 33.92L29.651 26.979V33.133C29.651 33.857 30.239 34.446 30.963 34.446C31.688 34.446 32.275 33.857 32.275 33.133V23.191zM40.322 29.472C41.047 29.472 41.637 28.884 41.637 28.16C41.637 27.438 41.048 26.849 40.322 26.849H36.664V24.501H40.322C41.047 24.501 41.637 23.911 41.637 23.19C41.637 22.463 41.046 21.874 40.322 21.874H35.352C34.627 21.874 34.039 22.464 34.039 23.19V28.158V28.16V33.134C34.039 33.857 34.627 34.447 35.352 34.447H40.322C41.047 34.447 41.637 33.857 41.637 33.134C41.637 32.408 41.048 31.819 40.322 31.819H36.664V29.472H40.322L40.322 29.472z" />
    <glyph glyph-name="pin"
      unicode="&#xE00A;"
      horiz-adv-x="50" d=" M25 50C15.649 50 8.068 42.419 8.068 33.068C8.068 32.868 8.074 32.664 8.084 32.458C8.147 30.68 8.482 28.971 9.053 27.373C12.665 15.5 25 0.012 25 0.012S37.333 15.499 40.947 27.372C41.517 28.971 41.853 30.68 41.916 32.458C41.927 32.664 41.932 32.867 41.932 33.068C41.932 42.419 34.351 50 25 50zM25 24.776C20.421 24.776 16.708 28.489 16.708 33.069C16.708 37.648 20.421 41.361 25 41.361C29.58 41.361 33.293 37.648 33.293 33.069C33.293 28.489 29.58 24.776 25 24.776z" />
    <glyph glyph-name="plus"
      unicode="&#xE00B;"
      horiz-adv-x="50" d=" M27.513 27.389V50H22.488V27.389H-0.125V22.364H22.486V-0.248H27.511V22.363H50.123V27.388H27.513z" />
    <glyph glyph-name="reload"
      unicode="&#xE00C;"
      horiz-adv-x="50" d=" M25.938 49.116C18.484 49.116 11.478 45.628 6.946 39.845L0.014 43.853L0 20.914L19.872 32.37L13.484 36.066C16.622 39.58 21.136 41.696 25.939 41.696C35.144 41.696 42.636 34.207 42.636 25.001C42.636 15.794 35.144 8.303 25.939 8.303V0.885C39.237 0.885 50.057 11.703 50.057 25.001C50.057 38.298 39.236 49.116 25.938 49.116z" />
    <glyph glyph-name="search"
      unicode="&#xE00D;"
      horiz-adv-x="50" d=" M50.053 2.328L34.397 17.986C37.35 21.484 39.038 25.809 39.038 30.431C39.038 35.623 37.006 40.507 33.323 44.181C29.653 47.861 24.755 49.886 19.533 49.886C14.313 49.886 9.416 47.861 5.748 44.183C2.062 40.507 0.032 35.623 0.032 30.431C0.032 25.237 2.062 20.353 5.748 16.677C9.434 13.003 14.329 10.979 19.533 10.979C24.167 10.979 28.505 12.661 32.015 15.607L47.67 -0.053L50.053 2.328zM8.129 19.062C5.08 22.102 3.401 26.141 3.401 30.431S5.08 38.759 8.131 41.803C11.166 44.843 15.215 46.518 19.534 46.518C23.855 46.518 27.905 44.843 30.941 41.8C33.991 38.76 35.67 34.722 35.67 30.431C35.67 26.139 33.991 22.102 30.941 19.062C27.891 16.02 23.839 14.346 19.534 14.346C15.228 14.347 11.179 16.021 8.129 19.062z" />
    <glyph glyph-name="share"
      unicode="&#xE00E;"
      horiz-adv-x="50" d=" M41.191 14.904C38.732 14.904 36.568 13.7 35.214 11.862L15.816 22.544C16.087 23.317 16.263 24.135 16.263 25.002C16.263 25.871 16.087 26.685 15.816 27.461L35.214 38.143C36.568 36.306 38.732 35.101 41.191 35.101C45.305 35.101 48.642 38.437 48.642 42.55C48.642 46.665 45.305 50.001 41.191 50.001C37.078 50.001 33.74 46.666 33.74 42.55C33.74 42.347 33.788 42.155 33.802 41.957L13.483 30.77C12.2 31.809 10.587 32.458 8.811 32.458C4.696 32.458 1.357 29.123 1.357 25.006C1.357 20.891 4.695 17.553 8.811 17.553C10.588 17.553 12.2 18.202 13.483 19.242L33.801 8.054C33.784 7.853 33.739 7.663 33.739 7.46C33.739 3.346 37.077 0.011 41.19 0.011C45.304 0.011 48.641 3.346 48.641 7.46C48.643 11.574 45.306 14.904 41.191 14.904z" />
    <glyph glyph-name="tel"
      unicode="&#xE00F;"
      horiz-adv-x="50" d=" M47.667 44.309C47.57 44.404 47.476 44.5 47.38 44.595L47.38 44.595C45.472 46.504 44.516 47.458 42.703 49.272C41.749 50.226 40.317 50.226 39.46 49.367C35.643 45.454 33.732 43.545 29.916 39.633C29.057 38.774 29.152 37.151 30.297 36.102C32.492 33.907 33.542 32.857 35.737 30.663C29.343 23.696 26.002 20.356 19.036 13.96C16.935 16.061 15.886 17.11 13.786 19.209C12.736 20.26 11.209 20.355 10.35 19.496C6.533 15.583 4.624 13.675 0.806 9.762C-0.053 8.903 -0.053 7.471 0.711 6.613C2.429 4.894 3.287 4.037 5.004 2.222C7.582 -0.355 12.258 -0.736 15.312 1.363C30.677 12.147 37.548 18.828 48.525 34.003C50.624 36.96 50.148 41.542 47.667 44.309z" />
    <glyph glyph-name="tick"
      unicode="&#xE010;"
      horiz-adv-x="50" d=" M45.343 44.835L43.12 42.46L16.746 14.447L6.917 24.072L4.593 26.345L0.047 21.699L2.371 19.425L14.561 7.477L16.923 5.165L19.196 7.578L47.844 38.016L50.078 40.378L45.343 44.835z" />
    <glyph glyph-name="wechat"
      unicode="&#xE011;"
      horiz-adv-x="50" d=" M50.027 18.476C50.027 25.865 43.128 31.889 35.375 31.889C27.17 31.889 20.701 25.865 20.701 18.476C20.701 11.074 27.17 5.066 35.375 5.066C37.094 5.066 38.825 5.53 40.549 5.995L45.277 3.214L43.989 7.842C47.448 10.616 50.027 14.308 50.027 18.476zM30.619 20.791C29.757 20.791 28.895 21.7 28.895 22.636C28.895 23.561 29.756 24.49 30.619 24.49C31.924 24.49 32.775 23.563 32.775 22.636C32.775 21.7 31.924 20.791 30.619 20.791zM40.104 20.791C39.253 20.791 38.392 21.7 38.392 22.636C38.392 23.561 39.253 24.49 40.104 24.49C41.394 24.49 42.263 23.563 42.263 22.636C42.263 21.7 41.396 20.791 40.104 20.791zM32.994 33.916C33.548 33.916 34.105 33.872 34.655 33.805C33.161 41.256 25.728 46.787 17.251 46.787C7.767 46.787 0 39.861 0 31.069C0 25.992 2.586 21.828 6.902 18.591L5.178 13.032L11.209 16.274C13.371 15.815 15.096 15.345 17.253 15.345C17.795 15.345 18.333 15.378 18.864 15.413C18.526 16.651 18.333 17.946 18.333 19.289C18.331 27.366 24.8 33.916 32.994 33.916zM23.717 38.929C25.021 38.929 25.88 38.012 25.88 36.624C25.88 35.237 25.021 34.308 23.717 34.308C22.425 34.308 21.132 35.237 21.132 36.624C21.131 38.012 22.425 38.929 23.717 38.929zM11.648 34.309C10.356 34.309 9.048 35.238 9.048 36.625S10.354 38.93 11.648 38.93C12.94 38.93 13.802 38.013 13.802 36.625S12.94 34.309 11.648 34.309z" />
    <glyph glyph-name="weibo"
      unicode="&#xE012;"
      horiz-adv-x="50" d=" M37.696 25.805C36.991 26.043 36.508 26.19 36.883 27.191C37.68 29.343 37.759 31.205 36.899 32.539C35.264 35.033 30.805 34.899 25.699 32.606C25.699 32.612 24.089 31.863 24.518 33.227C25.291 35.918 25.181 38.191 23.954 39.507C21.181 42.47 13.807 39.39 7.499 32.623C2.762 27.548 0.007 22.17 0.007 17.529C0.007 8.627 10.653 3.226 21.071 3.226C34.71 3.226 43.787 11.71 43.787 18.467C43.782 22.545 40.582 24.852 37.696 25.805zM21.08 6.407C12.783 5.537 5.617 9.554 5.071 15.413C4.525 21.237 10.828 26.698 19.127 27.576C27.448 28.46 34.615 24.433 35.153 18.601C35.687 12.735 29.393 7.298 21.08 6.407zM46.766 42.083C43.463 45.985 38.599 47.486 34.116 46.458H34.11C33.076 46.233 32.416 45.128 32.645 44.015C32.861 42.904 33.878 42.196 34.916 42.442C38.113 43.156 41.571 42.091 43.907 39.311C46.255 36.54 46.875 32.746 45.875 29.428V29.427C45.556 28.337 46.107 27.182 47.119 26.831C48.14 26.48 49.219 27.066 49.537 28.158C49.537 28.158 49.537 28.166 49.545 28.166C50.95 32.839 50.06 38.168 46.766 42.083zM40.963 29.273C41.838 28.98 42.766 29.481 43.046 30.401C43.734 32.678 43.314 35.279 41.708 37.183C40.1 39.099 37.733 39.814 35.538 39.315C34.642 39.111 34.079 38.173 34.266 37.221C34.459 36.269 35.335 35.65 36.231 35.866V35.861C37.3 36.097 38.454 35.741 39.242 34.806C40.024 33.886 40.239 32.615 39.905 31.498C39.627 30.559 40.102 29.573 40.963 29.273zM21.917 23.072C17.962 24.172 13.5 22.068 11.776 18.343C10.032 14.533 11.717 10.302 15.714 8.932C19.845 7.502 24.725 9.685 26.425 13.796C28.097 17.804 26.005 21.937 21.917 23.072zM18.892 13.359C18.087 11.975 16.38 11.38 15.07 12.009C13.798 12.632 13.418 14.238 14.226 15.567C15.019 16.902 16.681 17.492 17.971 16.931C19.272 16.321 19.691 14.748 18.892 13.359zM21.54 16.988C21.259 16.472 20.607 16.217 20.114 16.425C19.607 16.642 19.462 17.237 19.746 17.767C20.029 18.291 20.644 18.546 21.146 18.338C21.635 18.14 21.82 17.537 21.54 16.988z" />
    <glyph glyph-name="whatsapp"
      unicode="&#xE013;"
      horiz-adv-x="50" d=" M49.969 25.659C49.969 12.215 38.989 1.318 25.439 1.318C21.138 1.318 17.097 2.416 13.581 4.346L0 0.031L4.427 13.09C2.194 16.758 0.907 21.061 0.907 25.659C0.908 39.102 11.89 50 25.438 50C38.988 50 49.969 39.102 49.969 25.659zM25.438 46.124C14.064 46.124 4.814 36.944 4.814 25.66C4.814 21.181 6.273 17.035 8.743 13.663L6.165 6.061L14.091 8.582C17.347 6.443 21.248 5.195 25.437 5.195C36.808 5.195 46.061 14.376 46.061 25.659C46.063 36.942 36.812 46.124 25.438 46.124zM37.826 20.055C37.674 20.301 37.272 20.451 36.672 20.749C36.071 21.048 33.113 22.492 32.565 22.69C32.012 22.888 31.613 22.989 31.211 22.391C30.811 21.793 29.658 20.451 29.307 20.054C28.955 19.653 28.606 19.603 28.004 19.902C27.402 20.2 25.466 20.831 23.169 22.863C21.382 24.444 20.175 26.397 19.824 26.995C19.474 27.592 19.787 27.914 20.088 28.211C20.359 28.479 20.69 28.908 20.99 29.256C21.292 29.604 21.392 29.852 21.592 30.251C21.793 30.648 21.693 30.997 21.542 31.296C21.393 31.594 20.188 34.53 19.688 35.725C19.187 36.918 18.687 36.72 18.335 36.72C17.985 36.72 17.584 36.77 17.183 36.77C16.783 36.77 16.13 36.621 15.579 36.023C15.028 35.426 13.475 33.982 13.475 31.047C13.475 28.111 15.628 25.274 15.93 24.877S20.089 18.258 26.201 15.868C32.315 13.481 32.315 14.279 33.418 14.378C34.519 14.477 36.975 15.821 37.477 17.214C37.977 18.61 37.977 19.806 37.826 20.055z" />
    <glyph glyph-name="youtube"
      unicode="&#xE014;"
      horiz-adv-x="50" d=" M49.151 36.771C48.538 39.419 46.363 41.373 43.744 41.664C37.542 42.353 31.266 42.785 25.015 42.781C18.765 42.785 12.488 42.354 6.285 41.664C3.667 41.372 1.492 39.419 0.881 36.771C0.011 33 0 28.883 0 25C0 21.116 0 16.999 0.871 13.229C1.483 10.582 3.658 8.627 6.276 8.337C12.478 7.647 18.755 7.216 25.005 7.219C31.256 7.216 37.532 7.647 43.734 8.337C46.352 8.627 48.529 10.581 49.14 13.229C50.011 17 50.016 21.117 50.016 25C50.017 28.883 50.021 33 49.151 36.771M33.536 23.848L21.746 17.474C20.575 16.839 19.615 17.411 19.615 18.744V31.257C19.615 32.589 20.573 33.161 21.746 32.527L33.536 26.152C34.709 25.52 34.709 24.481 33.536 23.848" />
  </font>
</defs>
</svg>
